<svg xmlns="http://www.w3.org/2000/svg"  viewBox="0 0 64 64" width="64px" height="64px"><linearGradient id="BvEixq2OYHSX9x79NiQW7a" x1="31.5" x2="31.5" y1="10.98" y2="53.047" gradientUnits="userSpaceOnUse"><stop offset="0" stop-color="#6dc7ff"/><stop offset="1" stop-color="#e6abff"/></linearGradient><path fill="url(#BvEixq2OYHSX9x79NiQW7a)" d="M46.51,41.83c0.064,0.557,0.092,1.124,0.092,1.701c0,3.133-1.064,7.038-2.602,9.469	c-0.709,0.106-1.263,0-2,0c-4.155,0-7.919-2.617-10.6-5.5C28.719,50.383,25.155,53,21,53c-0.396,0-0.613,0.029-1,0	c-1.585-2.46-2.881-6.278-2.881-9.469c0-0.48,0.018-0.951,0.065-1.422C12.282,40.812,7.807,36.968,6.25,32	c1.465-4.661,5.562-8.331,10.04-9.83c-0.064-0.557-0.092-1.124-0.092-1.701c0-3.133,1.264-7.038,2.802-9.469	c4.458-0.292,9.719,2.617,12.4,5.5C34.081,13.617,39,11,43,11c1.585,2.46,2.681,6.278,2.681,9.469c0,0.48-0.018,0.951-0.064,1.422	C50.518,23.188,55.193,27.032,56.75,32C55.285,36.661,50.988,40.331,46.51,41.83z"/><path fill="#fff" d="M45.65,39.59l-7.29,6.21c-0.91,0.77-2.04,1.18-3.2,1.18c-0.55,0-1.12-0.1-1.66-0.29	c0,0-8.12-3.74-10.77-5.11c-0.71-0.37-1.94-1.14-2.82-1.7c-1.27-0.81-2.09-2.25-1.95-3.77c0.02-0.16,0.04-0.32,0.07-0.49	c0.27-1.27,1.08-2.35,2.22-2.97c0.5-0.26,1.04-0.41,1.57-0.45l-4.38-5.61c-1.48-1.87-1.18-4.61,0.65-6.1	c1.83-1.5,4.51-1.2,5.98,0.67l2.28,2.79c0.21-0.42,0.5-0.8,0.88-1.11c0.86-0.7,1.97-0.88,2.96-0.58c0.18-0.55,0.52-1.05,0.99-1.44	c0.66-0.54,1.48-0.78,2.31-0.69c0.62,0.07,1.19,0.32,1.66,0.72c0.2-0.43,0.48-0.81,0.86-1.11c1.23-1.01,3.07-1.01,4.34,0.37	c2.72,2.93,4.83,5.97,7.06,15.11C47.78,36.76,46.97,38.46,45.65,39.59z"/><linearGradient id="BvEixq2OYHSX9x79NiQW7b" x1="32" x2="32" y1="19.02" y2="46.98" gradientUnits="userSpaceOnUse"><stop offset="0" stop-color="#1a6dff"/><stop offset="1" stop-color="#c822ff"/></linearGradient><path fill="url(#BvEixq2OYHSX9x79NiQW7b)" d="M47.408,35.217c-2.228-9.134-4.342-12.179-7.053-15.112c-1.272-1.377-3.114-1.38-4.347-0.365	c-0.373,0.301-0.658,0.683-0.861,1.108c-0.468-0.395-1.038-0.645-1.655-0.714c-0.833-0.097-1.653,0.15-2.307,0.686	c-0.474,0.388-0.812,0.886-0.997,1.439c-0.985-0.3-2.093-0.122-2.952,0.582c-0.382,0.313-0.674,0.693-0.887,1.105l-2.276-2.786	c-1.472-1.867-4.148-2.172-5.978-0.67c-1.83,1.492-2.129,4.232-0.657,6.099l4.387,5.612c-0.537,0.041-1.074,0.183-1.572,0.447	c-1.144,0.619-1.95,1.705-2.218,2.974c-0.033,0.163-0.057,0.327-0.071,0.491c-0.136,1.516,0.682,2.956,1.945,3.766	c0.881,0.565,2.111,1.335,2.821,1.701c2.651,1.365,10.773,5.105,10.773,5.105c0.537,0.193,1.104,0.294,1.661,0.294	c1.154,0,2.288-0.406,3.193-1.177l7.291-6.211C46.97,38.465,47.785,36.762,47.408,35.217z M44.374,38.038l-7.292,6.201	c-0.806,0.69-1.92,0.893-2.915,0.538c0,0-7.888-3.725-10.773-5.115c-0.355-0.171-1.587-0.894-2.344-1.342	c-0.677-0.401-1.154-1.134-1.113-1.932c0.006-0.116,0.021-0.233,0.045-0.349c0.139-0.69,0.318-1.116,0.945-1.451	c0.925-0.497,1.87-0.264,3.114,0.376l3.979,1.776l-9.032-11.417c-0.786-0.995-0.627-2.456,0.348-3.248	c0.975-0.802,2.397-0.639,3.193,0.365l4.025,4.929c0.026,0.036,0.042,0.076,0.07,0.111l0.012-0.01l3.235,3.962l1.522-1.309	l-3.248-3.976c-0.351-0.515-0.217-1.269,0.336-1.721c0.535-0.439,1.319-0.349,1.765,0.216l3.339,4.088l1.5-1.333l-2.817-3.461	l0.012-0.01c-0.4-0.508-0.339-1.12,0.152-1.522c0.238-0.196,0.534-0.284,0.845-0.251c0.305,0.034,0.58,0.188,0.791,0.456	l2.768,3.247l1.542-1.25l-1.313-1.566c-0.199-0.254-0.289-0.578-0.249-0.893c0.03-0.325,0.189-0.619,0.438-0.822	c0.686-0.568,1.587,0.076,1.81,0.325c2.387,2.659,4.253,5.323,6.376,13.884C45.651,36.389,45.16,37.358,44.374,38.038z"/><linearGradient id="BvEixq2OYHSX9x79NiQW7c" x1="31.5" x2="31.5" y1="3" y2="61" gradientUnits="userSpaceOnUse"><stop offset="0" stop-color="#1a6dff"/><stop offset="1" stop-color="#c822ff"/></linearGradient><path fill="url(#BvEixq2OYHSX9x79NiQW7c)" d="M32,61c-5.036,0-9.743-2.197-12.987-6.046C9.996,54.44,3,47.08,3,38c0-2.054,0.37-4.07,1.1-6 C3.37,30.07,3,28.054,3,26c0-8.667,6.396-15.848,14.946-16.873C21.194,5.228,25.928,3,31,3c5.036,0,9.743,2.197,12.987,6.046 C53.004,9.56,60,16.92,60,26c0,2.054-0.37,4.07-1.1,6c0.729,1.93,1.1,3.946,1.1,6c0,8.667-6.396,15.848-14.946,16.873 C41.806,58.772,37.072,61,32,61z M31,5c-4.599,0-8.883,2.077-11.754,5.698l-0.264,0.334l-0.425,0.04C10.829,11.811,5,18.228,5,26 c0,1.929,0.37,3.821,1.101,5.625L6.253,32l-0.152,0.375C5.37,34.179,5,36.071,5,38c0,8.146,6.384,14.724,14.533,14.975l0.462,0.015 l0.288,0.361C23.152,56.94,27.423,59,32,59c4.599,0,8.883-2.077,11.754-5.698l0.264-0.334l0.425-0.04 C52.171,52.189,58,45.772,58,38c0-1.929-0.37-3.821-1.101-5.625L56.747,32l0.152-0.375C57.63,29.821,58,27.929,58,26 c0-8.146-6.384-14.724-14.533-14.975l-0.462-0.015l-0.288-0.361C39.848,7.06,35.577,5,31,5z"/></svg>